<mxfile host="app.diagrams.net" modified="2022-01-20T09:42:04.930Z" agent="5.0 (Windows NT 10.0; Win64; x64) AppleWebKit/537.36 (KHTML, like Gecko) Chrome/97.0.4692.71 Safari/537.36" etag="FFJr8ZWpYNwsBaMIVRpK" version="16.4.2" type="github">
  <diagram id="-4fzoeFK4IHKWLqGQk1l" name="Page-1">
    <mxGraphModel dx="1422" dy="762" grid="1" gridSize="10" guides="1" tooltips="1" connect="1" arrows="1" fold="1" page="1" pageScale="1" pageWidth="827" pageHeight="1169" math="0" shadow="0">
      <root>
        <mxCell id="0" />
        <mxCell id="1" parent="0" />
        <mxCell id="bKPVOtbk621qfxr6UGIC-1" value="Input&lt;br&gt;Embedding" style="rounded=1;whiteSpace=wrap;html=1;fillColor=#fad9d5;strokeColor=#ae4132;" vertex="1" parent="1">
          <mxGeometry x="270" y="410" width="110" height="40" as="geometry" />
        </mxCell>
        <mxCell id="bKPVOtbk621qfxr6UGIC-2" value="" style="endArrow=classic;html=1;rounded=0;exitX=0.5;exitY=0;exitDx=0;exitDy=0;spacing=0;" edge="1" parent="1" source="bKPVOtbk621qfxr6UGIC-1">
          <mxGeometry width="50" height="50" relative="1" as="geometry">
            <mxPoint x="324.5" y="390" as="sourcePoint" />
            <mxPoint x="324.5" y="360" as="targetPoint" />
          </mxGeometry>
        </mxCell>
        <mxCell id="bKPVOtbk621qfxr6UGIC-3" value="" style="edgeStyle=segmentEdgeStyle;endArrow=classic;html=1;rounded=0;" edge="1" parent="1">
          <mxGeometry width="50" height="50" relative="1" as="geometry">
            <mxPoint x="320" y="390" as="sourcePoint" />
            <mxPoint x="350" y="360" as="targetPoint" />
            <Array as="points">
              <mxPoint x="350" y="390" />
            </Array>
          </mxGeometry>
        </mxCell>
        <mxCell id="bKPVOtbk621qfxr6UGIC-5" value="" style="edgeStyle=segmentEdgeStyle;endArrow=classic;html=1;rounded=0;" edge="1" parent="1">
          <mxGeometry width="50" height="50" relative="1" as="geometry">
            <mxPoint x="330" y="390" as="sourcePoint" />
            <mxPoint x="300" y="360" as="targetPoint" />
            <Array as="points">
              <mxPoint x="300" y="390" />
              <mxPoint x="300" y="360" />
            </Array>
          </mxGeometry>
        </mxCell>
        <mxCell id="bKPVOtbk621qfxr6UGIC-7" value="" style="edgeStyle=segmentEdgeStyle;endArrow=classic;html=1;rounded=0;" edge="1" parent="1">
          <mxGeometry width="50" height="50" relative="1" as="geometry">
            <mxPoint x="325" y="405" as="sourcePoint" />
            <mxPoint x="280" y="275" as="targetPoint" />
            <Array as="points">
              <mxPoint x="250" y="405" />
              <mxPoint x="250" y="275" />
            </Array>
          </mxGeometry>
        </mxCell>
        <mxCell id="bKPVOtbk621qfxr6UGIC-8" value="Multi-Head&lt;br&gt;Attention" style="rounded=1;whiteSpace=wrap;html=1;fillColor=#fad7ac;strokeColor=#b46504;" vertex="1" parent="1">
          <mxGeometry x="275" y="320" width="105" height="40" as="geometry" />
        </mxCell>
        <mxCell id="bKPVOtbk621qfxr6UGIC-9" value="" style="endArrow=classic;html=1;rounded=0;" edge="1" parent="1">
          <mxGeometry width="50" height="50" relative="1" as="geometry">
            <mxPoint x="327" y="320" as="sourcePoint" />
            <mxPoint x="327" y="290" as="targetPoint" />
          </mxGeometry>
        </mxCell>
        <mxCell id="bKPVOtbk621qfxr6UGIC-10" value="Add &amp;amp; Norm" style="rounded=1;whiteSpace=wrap;html=1;fillColor=#ffff88;strokeColor=#36393d;" vertex="1" parent="1">
          <mxGeometry x="280" y="260" width="90" height="30" as="geometry" />
        </mxCell>
        <mxCell id="bKPVOtbk621qfxr6UGIC-15" value="&lt;span style=&quot;font-weight: normal&quot;&gt;&lt;font style=&quot;font-size: 14px&quot;&gt;Inputs&lt;/font&gt;&lt;/span&gt;" style="text;strokeColor=none;fillColor=none;html=1;fontSize=24;fontStyle=1;verticalAlign=middle;align=center;" vertex="1" parent="1">
          <mxGeometry x="285" y="490" width="80" height="20" as="geometry" />
        </mxCell>
        <mxCell id="bKPVOtbk621qfxr6UGIC-16" value="" style="endArrow=classic;html=1;rounded=0;fontSize=14;entryX=0.5;entryY=1;entryDx=0;entryDy=0;" edge="1" parent="1" target="bKPVOtbk621qfxr6UGIC-1">
          <mxGeometry width="50" height="50" relative="1" as="geometry">
            <mxPoint x="325" y="490" as="sourcePoint" />
            <mxPoint x="440" y="350" as="targetPoint" />
            <Array as="points">
              <mxPoint x="325" y="490" />
            </Array>
          </mxGeometry>
        </mxCell>
        <mxCell id="bKPVOtbk621qfxr6UGIC-18" value="" style="endArrow=classic;html=1;rounded=0;fontSize=14;" edge="1" parent="1">
          <mxGeometry width="50" height="50" relative="1" as="geometry">
            <mxPoint x="327" y="259" as="sourcePoint" />
            <mxPoint x="327" y="229" as="targetPoint" />
          </mxGeometry>
        </mxCell>
        <mxCell id="bKPVOtbk621qfxr6UGIC-19" value="Feed&lt;br&gt;Forward" style="rounded=1;whiteSpace=wrap;html=1;fontSize=14;fillColor=#cce5ff;strokeColor=#36393d;" vertex="1" parent="1">
          <mxGeometry x="271.25" y="190" width="112.5" height="40" as="geometry" />
        </mxCell>
        <mxCell id="bKPVOtbk621qfxr6UGIC-23" value="" style="edgeStyle=segmentEdgeStyle;endArrow=classic;html=1;rounded=0;" edge="1" parent="1">
          <mxGeometry width="50" height="50" relative="1" as="geometry">
            <mxPoint x="325" y="250" as="sourcePoint" />
            <mxPoint x="280" y="150" as="targetPoint" />
            <Array as="points">
              <mxPoint x="250" y="250" />
              <mxPoint x="250" y="150" />
              <mxPoint x="280" y="150" />
            </Array>
          </mxGeometry>
        </mxCell>
        <mxCell id="bKPVOtbk621qfxr6UGIC-24" value="" style="endArrow=classic;html=1;rounded=0;" edge="1" parent="1">
          <mxGeometry width="50" height="50" relative="1" as="geometry">
            <mxPoint x="327" y="190" as="sourcePoint" />
            <mxPoint x="327" y="170" as="targetPoint" />
          </mxGeometry>
        </mxCell>
        <mxCell id="bKPVOtbk621qfxr6UGIC-27" value="" style="edgeStyle=orthogonalEdgeStyle;rounded=0;orthogonalLoop=1;jettySize=auto;html=1;fontSize=14;" edge="1" parent="1" source="bKPVOtbk621qfxr6UGIC-25">
          <mxGeometry relative="1" as="geometry">
            <mxPoint x="327.5" y="120" as="targetPoint" />
          </mxGeometry>
        </mxCell>
        <mxCell id="bKPVOtbk621qfxr6UGIC-25" value="Add &amp;amp; Norm" style="rounded=1;whiteSpace=wrap;html=1;fillColor=#ffff88;strokeColor=#36393d;" vertex="1" parent="1">
          <mxGeometry x="282.5" y="140" width="90" height="30" as="geometry" />
        </mxCell>
        <mxCell id="bKPVOtbk621qfxr6UGIC-28" value="&lt;span style=&quot;font-weight: normal&quot;&gt;&lt;font style=&quot;font-size: 14px&quot;&gt;Outputs&lt;/font&gt;&lt;/span&gt;" style="text;strokeColor=none;fillColor=none;html=1;fontSize=24;fontStyle=1;verticalAlign=middle;align=center;" vertex="1" parent="1">
          <mxGeometry x="287.5" y="90" width="80" height="20" as="geometry" />
        </mxCell>
      </root>
    </mxGraphModel>
  </diagram>
</mxfile>
